<svg width="150" height="44" viewBox="0 0 150 44" fill="none" xmlns="http://www.w3.org/2000/svg">
<g clip-path="url(#clip0)">
<path d="M25.2157 3.29685H5.67697C4.5399 3.29685 3.61804 4.21367 3.61804 5.34452V6.50358H27.2745V5.34452C27.2745 4.21367 26.3528 3.29685 25.2157 3.29685V3.29685Z" fill="#6EC127"/>
<path d="M28.7833 10.1054H2.10937C1.10931 10.1054 0.298485 9.29916 0.298485 8.30442C0.298485 7.30982 1.10916 6.50343 2.10937 6.50343H28.7833C29.7833 6.50343 30.5942 7.30982 30.5942 8.30442C30.5942 9.29916 29.7833 10.1054 28.7833 10.1054V10.1054Z" fill="#6EC127"/>
<path d="M25.2157 40.1063H5.67696L3.61819 10.1054H27.2745L25.2157 40.1063Z" fill="#6EC127"/>
<path d="M28.7833 6.50343H26.7657C27.7658 6.50343 28.5766 7.30982 28.5766 8.30442C28.5766 9.29901 27.7659 10.1054 26.7657 10.1054H28.7833C29.7833 10.1054 30.5942 9.29916 30.5942 8.30442C30.5942 7.30982 29.7833 6.50343 28.7833 6.50343V6.50343Z" fill="#5D8E33"/>
<path d="M2.10937 10.1054H4.12695C3.12689 10.1054 2.31607 9.29916 2.31607 8.30442C2.31607 7.30982 3.12674 6.50343 4.12695 6.50343H2.10937C1.10931 6.50343 0.298485 7.30982 0.298485 8.30442C0.298485 9.29916 1.10916 10.1054 2.10937 10.1054Z" fill="#98D961"/>
<path d="M25.2157 3.29685H23.1981C24.3352 3.29685 25.257 4.21367 25.257 5.34452V6.50358H27.2746V5.34452C27.2745 4.21367 26.3527 3.29685 25.2157 3.29685Z" fill="#5D8E33"/>
<path d="M5.67696 3.29685H7.69454C6.55748 3.29685 5.63562 4.21367 5.63562 5.34452V6.50358H3.61819V5.34452C3.61819 4.21367 4.5399 3.29685 5.67696 3.29685Z" fill="#98D961"/>
<path d="M25.4812 10.1054L23.4223 40.1063H25.2157L27.2745 10.1054H25.4812Z" fill="#5D8E33"/>
<path d="M5.41146 10.1054L7.47038 40.1063H5.67696L3.61819 10.1054H5.41146Z" fill="#98D961"/>
<path d="M28.7833 10.4023H2.10937C0.946334 10.4023 0 9.46124 0 8.30441C0 7.14759 0.946334 6.20657 2.10937 6.20657H28.7833C29.9463 6.20657 30.8926 7.14759 30.8926 8.30441C30.8926 9.46124 29.9463 10.4023 28.7833 10.4023V10.4023ZM2.10937 6.80027C1.27541 6.80027 0.596962 7.47501 0.596962 8.30441C0.596962 9.13381 1.27541 9.80855 2.10937 9.80855H28.7833C29.6172 9.80855 30.2957 9.13381 30.2957 8.30441C30.2957 7.47501 29.6172 6.80027 28.7833 6.80027H2.10937Z" fill="#690589"/>
<path d="M27.2745 6.80028H3.61804C3.45328 6.80028 3.31956 6.66729 3.31956 6.50343V5.34437C3.31956 4.05174 4.37708 3 5.67696 3H25.2157C26.5154 3 27.5729 4.05174 27.5729 5.34437V6.50343C27.5729 6.66743 27.4394 6.80028 27.2745 6.80028V6.80028ZM3.91652 6.20657H26.976V5.34437C26.976 4.37902 26.1864 3.5937 25.2157 3.5937H5.67696C4.7063 3.5937 3.91652 4.37917 3.91652 5.34437V6.20657Z" fill="#690589"/>
<path d="M25.2157 40.4031H5.67696C5.51996 40.4031 5.38983 40.2823 5.37923 40.1265L3.32031 10.1256C3.31464 10.0435 3.34344 9.96277 3.39985 9.90281C3.45641 9.84269 3.53536 9.80856 3.61804 9.80856H27.2745C27.3571 9.80856 27.4361 9.84269 27.4927 9.90281C27.5491 9.96292 27.5779 10.0437 27.5722 10.1256L25.5134 40.1265C25.5028 40.2823 25.3727 40.4031 25.2157 40.4031ZM5.95575 39.8094H24.9369L26.9548 10.4023H3.93771L5.95575 39.8094Z" fill="#690589"/>
<path d="M18.526 22.6715L14.3162 15.446H18.3072C18.5737 15.446 18.8203 15.5873 18.9537 15.817L21.8694 20.8294L18.526 22.6715Z" fill="#F4EFED"/>
<path d="M18.5263 22.9684C18.4232 22.9684 18.323 22.9152 18.2678 22.8202L14.0582 15.5948C14.0047 15.5029 14.0046 15.3896 14.0579 15.2978C14.111 15.2057 14.2098 15.149 14.3164 15.149H18.3073C18.6793 15.149 19.0259 15.3479 19.2123 15.6681L22.1279 20.6805C22.1681 20.7496 22.1785 20.8316 22.1572 20.9084C22.1357 20.9851 22.0842 21.0501 22.0142 21.0889L18.6707 22.9311C18.6248 22.9563 18.5752 22.9684 18.5263 22.9684V22.9684ZM14.8344 15.7429L18.6375 22.2708L21.4589 20.7162L18.6954 15.9655C18.6155 15.8282 18.4669 15.7429 18.3072 15.7429H14.8344Z" fill="#690589"/>
<path d="M14.8217 26.619H22.9898L20.9914 30.0914C20.8583 30.3227 20.611 30.4653 20.3431 30.4653H14.8217V26.619Z" fill="#F4EFED"/>
<path d="M20.3431 30.762H14.8217C14.6569 30.762 14.5232 30.629 14.5232 30.4652V26.619C14.5232 26.455 14.6569 26.3222 14.8217 26.3222H22.9898C23.0962 26.3222 23.1945 26.3786 23.248 26.47C23.3012 26.5616 23.3015 26.6745 23.2487 26.7664L21.2502 30.2388C21.0647 30.5615 20.717 30.762 20.3431 30.762V30.762ZM15.1202 30.1683H20.3431C20.5034 30.1683 20.6527 30.0822 20.7324 29.9437L22.475 26.9157H15.1202V30.1683Z" fill="#690589"/>
<path d="M7.90005 26.619L9.90152 30.0917C10.0346 30.3227 10.2819 30.4652 10.5495 30.4652H13.7246V31.1329C13.7246 31.4614 14.122 31.6282 14.3586 31.3991L17.0569 28.7857C17.2077 28.6395 17.2073 28.3983 17.056 28.2527L14.3577 25.6569C14.1207 25.429 13.7246 25.5959 13.7246 25.9238V26.619H7.90005Z" fill="#F4EFED"/>
<path d="M7.90005 26.619L7.02997 25.0607C6.90208 24.8317 6.90506 24.5525 7.03759 24.3262L10.1661 18.9854L13.4881 20.9111L10.156 26.6192H7.90005V26.619Z" fill="#F4EFED"/>
<path d="M14.0985 31.8014C14.0103 31.8014 13.9213 31.7841 13.8368 31.7486C13.5873 31.644 13.4261 31.4023 13.4261 31.1329V30.762H10.5495C10.176 30.762 9.82839 30.5618 9.64243 30.2394L7.64097 26.7667C7.58814 26.6748 7.58829 26.5619 7.64171 26.4702C7.69499 26.3786 7.79349 26.3222 7.8999 26.3222H13.426V25.9238C13.426 25.6509 13.583 25.4152 13.8355 25.3086C14.0882 25.2019 14.3677 25.2535 14.5651 25.4434L17.2633 28.0393C17.395 28.1659 17.4677 28.336 17.468 28.5183C17.4685 28.7005 17.3964 28.8709 17.265 28.9983L14.5668 31.6116C14.4386 31.7358 14.2699 31.8014 14.0985 31.8014V31.8014ZM8.41508 26.9159L10.1603 29.9442C10.24 30.0825 10.3891 30.1685 10.5494 30.1685H13.7245C13.8892 30.1685 14.0229 30.3013 14.0229 30.4653V31.1331C14.0229 31.1659 14.0385 31.189 14.0688 31.2018C14.0995 31.2146 14.1267 31.2094 14.1502 31.1865L16.8485 28.5732C16.8673 28.5549 16.8711 28.534 16.8711 28.5196C16.8711 28.5052 16.8672 28.4843 16.8482 28.4662L14.1501 25.8702C14.1265 25.8477 14.0992 25.8423 14.0686 25.8551C14.0383 25.8678 14.0229 25.891 14.0229 25.9238V26.619C14.0229 26.7829 13.8892 26.9159 13.7245 26.9159H8.41508Z" fill="#690589"/>
<path d="M10.156 26.9159H7.90005C7.79156 26.9159 7.69171 26.8574 7.63918 26.7632L6.76911 25.2048C6.59106 24.8859 6.59524 24.4919 6.77985 24.1768L9.90824 18.8361C9.94823 18.7679 10.0136 18.7185 10.0902 18.6985C10.1666 18.6784 10.2484 18.6893 10.3166 18.729L13.6385 20.6547C13.7807 20.7372 13.8289 20.9186 13.7464 21.0602L10.4143 26.7683C10.3607 26.8595 10.2624 26.9159 10.156 26.9159ZM8.07556 26.3222H9.98405L13.0802 21.0182L10.2736 19.3913L7.29563 24.4756C7.21638 24.6108 7.21459 24.7797 7.291 24.9167L8.07556 26.3222Z" fill="#690589"/>
<path d="M16.5814 15.4459H12.5014C12.2312 15.4459 11.9819 15.5912 11.8499 15.8257L10.3521 18.485L9.58065 18.0527C9.29277 17.8913 8.95145 18.154 9.03637 18.4717L10.0955 22.434C10.1496 22.6359 10.3601 22.7537 10.5616 22.695L14.4105 21.5721C14.7238 21.4807 14.7766 21.0617 14.4957 20.8962L13.7194 20.4386L16.5814 15.4459Z" fill="#F4EFED"/>
<path d="M10.4552 23.0071C10.3413 23.0071 10.2288 22.978 10.1267 22.9207C9.96763 22.8317 9.85406 22.6858 9.80705 22.51L8.74789 18.5477C8.6782 18.2873 8.77162 18.0126 8.98593 17.8476C9.20009 17.6825 9.49111 17.6614 9.72721 17.7938L10.2379 18.08L11.5894 15.6804C11.7739 15.3525 12.1234 15.1487 12.5014 15.1487H16.5814C16.6878 15.1487 16.786 15.205 16.8396 15.2964C16.8928 15.3879 16.8934 15.5007 16.8408 15.5927L14.1241 20.3317L14.648 20.6405C14.8817 20.7782 15.0058 21.0305 14.9721 21.2986C14.9382 21.5668 14.7554 21.7807 14.4947 21.8567L10.6456 22.9795C10.5827 22.9981 10.5188 23.0071 10.4552 23.0071V23.0071ZM9.39619 18.3005C9.38097 18.3005 9.3659 18.3062 9.35127 18.3173C9.32515 18.3374 9.31635 18.3636 9.32471 18.3954L10.3839 22.3577C10.3906 22.3828 10.407 22.3965 10.4195 22.4036C10.4322 22.4107 10.4522 22.4174 10.4773 22.4101L14.3264 21.2873C14.3653 21.2759 14.3768 21.2471 14.3795 21.225C14.3823 21.2029 14.3783 21.1721 14.3434 21.1515L13.567 20.6941C13.4269 20.6114 13.3791 20.4324 13.4599 20.2917L16.0675 15.743H12.5013C12.3392 15.743 12.1892 15.8303 12.1101 15.971L10.6124 18.6302C10.5736 18.6989 10.5089 18.7497 10.4325 18.7709C10.3561 18.7921 10.2743 18.7823 10.2054 18.7436L9.43395 18.3112C9.42127 18.3041 9.40858 18.3005 9.39619 18.3005V18.3005Z" fill="#690589"/>
<path d="M23.8691 24.3928L22.3662 21.5815L22.9801 21.2156C23.2575 21.0503 23.2069 20.6363 22.8977 20.5421L19.1813 19.4072C18.9756 19.3444 18.7594 19.4669 18.7088 19.6748L17.7925 23.435C17.7152 23.7521 18.0569 24.007 18.3414 23.8447L18.9807 23.4797L21.883 28.5422L23.8579 25.1106C23.9854 24.8891 23.9895 24.6181 23.8691 24.3928V24.3928Z" fill="#F4EFED"/>
<path d="M21.883 28.8389C21.8828 28.8389 21.8828 28.8389 21.8827 28.8389C21.7755 28.8387 21.6767 28.7816 21.6238 28.6891L18.8697 23.8852L18.4897 24.102C18.2532 24.237 17.9705 24.2199 17.7523 24.0571C17.5338 23.8941 17.4382 23.629 17.5022 23.3651L18.4187 19.6048C18.4621 19.4265 18.579 19.2721 18.7392 19.1814C18.8997 19.0908 19.0926 19.0694 19.2689 19.1233L22.9853 20.2581C23.2426 20.3366 23.4226 20.5505 23.4549 20.8162C23.4876 21.082 23.3644 21.3326 23.1335 21.4702L22.7631 21.691L24.1328 24.2533C24.1328 24.2533 24.1328 24.2534 24.1329 24.2534C24.3025 24.5708 24.2965 24.9463 24.117 25.258L22.1422 28.6896C22.0889 28.7819 21.99 28.8389 21.883 28.8389V28.8389ZM18.9807 23.1827C19.007 23.1827 19.0334 23.1861 19.0591 23.1931C19.1356 23.2139 19.2007 23.264 19.2399 23.3325L21.8834 27.9436L23.5988 24.9629C23.6758 24.8292 23.6784 24.6681 23.6055 24.532L22.1028 21.7209C22.0282 21.5813 22.0766 21.4081 22.2128 21.3269L22.8265 20.9612C22.8611 20.9406 22.8651 20.9102 22.8623 20.8882C22.8596 20.8664 22.8484 20.8377 22.8099 20.826L19.0935 19.6911C19.0673 19.683 19.0471 19.6902 19.0344 19.6975C19.0216 19.7048 19.005 19.719 18.9986 19.7449L18.0823 23.5051C18.0729 23.5444 18.0923 23.5687 18.1103 23.5823C18.1368 23.6018 18.1644 23.6033 18.1926 23.5873L18.8322 23.2222C18.8777 23.196 18.9289 23.1827 18.9807 23.1827V23.1827Z" fill="#690589"/>
<path d="M25.0967 40.1064C28.8416 40.1064 31.8775 37.0872 31.8775 33.3627C31.8775 29.6383 28.8416 26.619 25.0967 26.619C21.3518 26.619 18.316 29.6383 18.316 33.3627C18.316 37.0872 21.3518 40.1064 25.0967 40.1064Z" fill="#99CA6F"/>
<path d="M25.0967 26.619C24.9197 26.619 24.745 26.6279 24.5713 26.6411C28.0702 26.9082 30.8265 29.8143 30.8265 33.3627C30.8265 36.9111 28.0704 39.8171 24.5713 40.0841C24.7448 40.0974 24.9197 40.1063 25.0967 40.1063C28.8416 40.1063 31.8775 37.087 31.8775 33.3627C31.8775 29.6384 28.8416 26.619 25.0967 26.619Z" fill="#5D8E33"/>
<path d="M25.0967 40.1063C25.2737 40.1063 25.4485 40.0974 25.6222 40.0841C22.1231 39.8171 19.367 36.911 19.367 33.3627C19.367 29.8145 22.1231 26.9083 25.6222 26.6411C25.4486 26.6279 25.2737 26.619 25.0967 26.619C21.3519 26.619 18.316 29.6383 18.316 33.3627C18.316 37.0871 21.3519 40.1063 25.0967 40.1063Z" fill="#99CA6F"/>
<path d="M25.0967 40.4031C21.1934 40.4031 18.0175 37.2448 18.0175 33.3626C18.0175 29.4805 21.1932 26.3222 25.0967 26.3222C29.0001 26.3222 32.1758 29.4805 32.1758 33.3626C32.176 37.2448 29.0003 40.4031 25.0967 40.4031ZM25.0967 26.9159C21.5224 26.9159 18.6145 29.8079 18.6145 33.3626C18.6145 36.9172 21.5224 39.8094 25.0967 39.8094C28.6711 39.8094 31.5789 36.9173 31.5789 33.3626C31.5789 29.8078 28.6711 26.9159 25.0967 26.9159Z" fill="#690589"/>
<path d="M5.81606 16.3022C5.6604 16.3022 5.52922 16.1822 5.51862 16.0255L5.39654 14.2444C5.38535 14.0808 5.50952 13.9391 5.67398 13.9279C5.83666 13.9174 5.98097 14.0403 5.99201 14.2039L6.11409 15.985C6.12529 16.1485 6.00112 16.2903 5.83666 16.3014C5.82979 16.3019 5.82292 16.3022 5.81606 16.3022V16.3022Z" fill="#690589"/>
<path d="M24.4795 37.0322L20.765 33.3379L22.1669 31.9439L24.4795 34.2442L28.5302 30.2157L29.9318 31.6097L24.4795 37.0322Z" fill="#F4EFED"/>
<path d="M24.4796 37.3291C24.4005 37.3291 24.3246 37.2978 24.2686 37.2421L20.554 33.5478C20.498 33.4921 20.4666 33.4166 20.4666 33.3379C20.4666 33.2593 20.498 33.1837 20.554 33.1281L21.9558 31.7341C22.0724 31.6181 22.2613 31.6181 22.3779 31.7341L24.4796 33.8243L28.3191 30.0058C28.4357 29.8899 28.6246 29.8899 28.7412 30.0058L30.143 31.3998C30.199 31.4555 30.2305 31.531 30.2305 31.6097C30.2305 31.6883 30.199 31.7639 30.143 31.8195L24.6908 37.2421C24.6347 37.2978 24.5587 37.3291 24.4796 37.3291ZM21.1871 33.3379L24.4795 36.6125L29.5096 31.6098L28.53 30.6356L24.6905 34.4541C24.5786 34.5654 24.3804 34.5654 24.2685 34.4541L22.1667 32.3638L21.1871 33.3379Z" fill="#690589"/>
<path d="M41.074 16.894C40.858 16.546 40.57 16.234 40.21 15.958C39.862 15.67 39.496 15.478 39.112 15.382C38.764 15.394 38.404 15.394 38.032 15.382C37.672 15.37 37.306 15.364 36.934 15.364C36.562 15.352 36.19 15.364 35.818 15.4C35.458 15.424 35.11 15.478 34.774 15.562C34.762 15.574 34.75 15.586 34.738 15.598C34.738 15.61 34.732 15.622 34.72 15.634C34.744 16.678 34.744 17.734 34.72 18.802C34.708 19.858 34.702 20.908 34.702 21.952C34.702 22.996 34.72 24.028 34.756 25.048C34.792 26.056 34.876 27.034 35.008 27.982C35.02 27.97 35.026 27.964 35.026 27.964C35.782 27.964 36.562 27.964 37.366 27.964C38.17 27.952 38.968 27.934 39.76 27.91C40.216 27.346 40.648 26.746 41.056 26.11C41.476 25.474 41.806 24.802 42.046 24.094C42.046 24.082 42.046 24.076 42.046 24.076C42.058 24.076 42.064 24.07 42.064 24.058C42.172 23.506 42.232 22.948 42.244 22.384C42.268 21.808 42.292 21.238 42.316 20.674C42.304 20.482 42.286 20.296 42.262 20.116C42.25 19.924 42.214 19.732 42.154 19.54C42.046 19.06 41.902 18.604 41.722 18.172C41.554 17.728 41.338 17.302 41.074 16.894ZM39.418 23.428C39.346 23.536 39.262 23.644 39.166 23.752C39.082 23.848 38.98 23.932 38.86 24.004C38.8 24.028 38.746 24.058 38.698 24.094C38.65 24.118 38.596 24.124 38.536 24.112C38.32 24.136 38.092 24.154 37.852 24.166C37.624 24.178 37.444 24.124 37.312 24.004C37.288 23.596 37.276 23.188 37.276 22.78C37.276 22.36 37.282 21.952 37.294 21.556C37.306 21.148 37.312 20.758 37.312 20.386C37.312 20.014 37.3 19.666 37.276 19.342V19.27H37.294H37.33C37.546 19.222 37.774 19.204 38.014 19.216C38.254 19.216 38.476 19.228 38.68 19.252C38.884 19.324 39.052 19.432 39.184 19.576C39.316 19.708 39.424 19.864 39.508 20.044C39.604 20.224 39.676 20.416 39.724 20.62C39.772 20.812 39.814 20.998 39.85 21.178C39.946 21.622 39.946 22.03 39.85 22.402C39.766 22.774 39.622 23.116 39.418 23.428ZM51.0176 25.552C50.2016 25.576 49.4096 25.57 48.6416 25.534C47.8736 25.486 47.0936 25.462 46.3016 25.462L46.2836 25.444C46.2596 25.156 46.2356 24.796 46.2116 24.364C46.1996 23.932 46.2236 23.542 46.2836 23.194C46.3436 23.146 46.4576 23.116 46.6256 23.104C46.7936 23.092 46.9796 23.086 47.1836 23.086C47.3996 23.086 47.6216 23.086 47.8496 23.086C48.0776 23.074 48.2816 23.044 48.4616 22.996C48.4496 22.552 48.4556 22.126 48.4796 21.718C48.5036 21.31 48.4856 20.902 48.4256 20.494V20.476C48.0536 20.464 47.6816 20.458 47.3096 20.458C46.9376 20.458 46.5716 20.446 46.2116 20.422L46.1936 20.404C46.1096 20.08 46.0856 19.738 46.1216 19.378C46.1696 19.006 46.1876 18.646 46.1756 18.298L46.1936 18.28H46.2476C46.6436 18.244 47.0396 18.226 47.4356 18.226C47.8316 18.226 48.2276 18.232 48.6236 18.244C49.0196 18.244 49.4096 18.238 49.7936 18.226C50.1896 18.202 50.5796 18.148 50.9636 18.064V18.046C50.9636 17.626 50.9756 17.2 50.9996 16.768C51.0356 16.336 51.0236 15.91 50.9636 15.49C50.9636 15.478 50.8436 15.466 50.6036 15.454C50.3636 15.442 50.0456 15.436 49.6496 15.436C49.2536 15.436 48.7976 15.442 48.2816 15.454C47.7656 15.466 47.2316 15.478 46.6796 15.49C46.1276 15.502 45.5756 15.52 45.0236 15.544C44.4836 15.556 43.9796 15.574 43.5116 15.598C43.4516 16.63 43.4156 17.656 43.4036 18.676C43.3916 19.696 43.3916 20.716 43.4036 21.736C43.4156 22.756 43.4336 23.782 43.4576 24.814C43.4816 25.834 43.4936 26.866 43.4936 27.91C44.6576 28.006 45.8696 28.036 47.1296 28C48.4016 27.952 49.6496 27.934 50.8736 27.946C50.9696 27.586 51.0236 27.202 51.0356 26.794C51.0476 26.374 51.0416 25.972 51.0176 25.588V25.552ZM59.6836 19.468C59.8516 18.568 59.7796 17.824 59.4676 17.236C59.1556 16.648 58.7116 16.204 58.1356 15.904C57.8476 15.772 57.5296 15.664 57.1816 15.58C56.8456 15.496 56.4976 15.448 56.1376 15.436C55.7896 15.412 55.4416 15.424 55.0936 15.472C54.7456 15.508 54.4276 15.586 54.1396 15.706C53.5636 15.946 53.0716 16.312 52.6636 16.804C52.2676 17.296 51.9976 17.842 51.8536 18.442C51.7096 19.042 51.7156 19.66 51.8716 20.296C52.0396 20.932 52.3996 21.514 52.9516 22.042C53.1196 22.186 53.3056 22.312 53.5096 22.42C53.7136 22.528 53.9356 22.606 54.1756 22.654C54.4276 22.702 54.6976 22.756 54.9856 22.816C55.2736 22.864 55.5376 22.942 55.7776 23.05C56.0296 23.158 56.2456 23.302 56.4256 23.482C56.6056 23.65 56.7136 23.878 56.7496 24.166C56.8216 24.586 56.7376 24.898 56.4976 25.102C56.2696 25.306 55.9936 25.414 55.6696 25.426C55.3576 25.426 55.0576 25.33 54.7696 25.138C54.4936 24.946 54.3436 24.658 54.3196 24.274C53.9116 24.286 53.4556 24.28 52.9516 24.256C52.4476 24.22 51.9856 24.232 51.5656 24.292V24.346V24.4C51.5296 24.976 51.6316 25.492 51.8716 25.948C52.1116 26.392 52.4356 26.77 52.8436 27.082C53.2516 27.394 53.7136 27.64 54.2296 27.82C54.7576 27.988 55.2856 28.078 55.8136 28.09C56.1856 28.102 56.5456 28.072 56.8936 28C57.2536 27.916 57.5836 27.79 57.8836 27.622C58.1956 27.454 58.4716 27.238 58.7116 26.974C58.9516 26.71 59.1436 26.392 59.2876 26.02C59.4316 25.708 59.5336 25.384 59.5936 25.048C59.6656 24.7 59.6896 24.358 59.6656 24.022C59.6536 23.686 59.5936 23.362 59.4856 23.05C59.3776 22.726 59.2156 22.426 58.9996 22.15C58.6516 21.634 58.2016 21.208 57.6496 20.872C57.1096 20.536 56.5216 20.332 55.8856 20.26C55.6336 20.224 55.3996 20.158 55.1836 20.062C54.9676 19.966 54.8116 19.774 54.7156 19.486C54.7036 19.402 54.6916 19.324 54.6796 19.252C54.6796 19.168 54.6916 19.084 54.7156 19C54.7636 18.664 54.9196 18.436 55.1836 18.316C55.4596 18.196 55.7416 18.166 56.0296 18.226C56.3176 18.286 56.5636 18.424 56.7676 18.64C56.9716 18.856 57.0376 19.126 56.9656 19.45C57.3856 19.57 57.8356 19.624 58.3156 19.612C58.7956 19.588 59.2456 19.54 59.6656 19.468H59.6836ZM63.5599 18.244C63.6559 18.148 63.7879 18.082 63.9559 18.046C64.1359 18.01 64.3039 17.98 64.4599 17.956C64.8079 17.944 65.0599 18.016 65.2159 18.172C65.3839 18.328 65.4979 18.532 65.5579 18.784C65.6179 19.024 65.6479 19.288 65.6479 19.576C65.6599 19.864 65.6839 20.122 65.7199 20.35C66.1759 20.434 66.6139 20.494 67.0339 20.53C67.4659 20.554 67.9039 20.518 68.3479 20.422C68.5399 19.87 68.6119 19.33 68.5639 18.802C68.5159 18.274 68.3779 17.788 68.1499 17.344C67.9219 16.888 67.6159 16.486 67.2319 16.138C66.8479 15.79 66.4159 15.514 65.9359 15.31C65.4679 15.094 64.9639 14.968 64.4239 14.932C63.8839 14.896 63.3379 14.968 62.7859 15.148C62.6179 15.196 62.4559 15.256 62.2999 15.328C62.1439 15.388 61.9999 15.466 61.8679 15.562C61.6399 15.766 61.4419 16 61.2739 16.264C61.1179 16.528 60.9859 16.816 60.8779 17.128C60.8059 17.308 60.7459 17.506 60.6979 17.722C60.6619 17.926 60.6559 18.13 60.6799 18.334C60.6679 19.306 60.6559 20.164 60.6439 20.908C60.6439 21.64 60.6439 22.3 60.6439 22.888C60.6559 23.464 60.6679 23.986 60.6799 24.454C60.6919 24.922 60.7099 25.372 60.7339 25.804C60.7819 26.308 60.9379 26.728 61.2019 27.064C61.4779 27.4 61.8139 27.664 62.2099 27.856C62.6059 28.036 63.0319 28.15 63.4879 28.198C63.9439 28.258 64.3879 28.258 64.8199 28.198C65.4799 28.186 66.0679 28.024 66.5839 27.712C67.1119 27.388 67.5379 26.98 67.8619 26.488C68.1859 25.996 68.3959 25.444 68.4919 24.832C68.5879 24.208 68.5339 23.584 68.3299 22.96C68.1619 22.912 67.9699 22.882 67.7539 22.87C67.5499 22.858 67.3399 22.852 67.1239 22.852C66.9079 22.852 66.6919 22.858 66.4759 22.87C66.2719 22.882 66.0859 22.876 65.9179 22.852C65.8579 23.152 65.8339 23.458 65.8459 23.77C65.8699 24.07 65.8159 24.358 65.6839 24.634C65.5639 24.874 65.3839 25.048 65.1439 25.156C64.9159 25.252 64.6699 25.288 64.4059 25.264C64.0579 25.168 63.8059 24.958 63.6499 24.634C63.5059 24.298 63.4159 23.956 63.3799 23.608C63.3439 23.188 63.3259 22.696 63.3259 22.132C63.3259 21.556 63.3319 21.004 63.3439 20.476C63.3559 19.948 63.3679 19.492 63.3799 19.108C63.4039 18.724 63.4279 18.514 63.4519 18.478C63.4639 18.454 63.4759 18.418 63.4879 18.37C63.5119 18.31 63.5359 18.268 63.5599 18.244ZM75.2504 21.682C75.2024 21.478 75.1364 21.202 75.0524 20.854C74.9684 20.506 74.8784 20.122 74.7824 19.702C74.6864 19.282 74.5844 18.844 74.4764 18.388C74.3804 17.932 74.2844 17.506 74.1884 17.11C74.1044 16.702 74.0204 16.342 73.9364 16.03C73.8644 15.706 73.8104 15.466 73.7744 15.31C73.3784 15.346 73.0544 15.37 72.8024 15.382C72.5624 15.382 72.3644 15.382 72.2084 15.382C72.0524 15.382 71.9264 15.382 71.8304 15.382C71.7344 15.382 71.6444 15.388 71.5604 15.4C71.2724 16.36 71.0084 17.326 70.7684 18.298C70.5284 19.27 70.3064 20.206 70.1024 21.106C69.8984 22.006 69.7184 22.858 69.5624 23.662C69.4184 24.454 69.2924 25.156 69.1844 25.768C69.0764 26.38 68.9924 26.878 68.9324 27.262C68.8724 27.646 68.8304 27.88 68.8064 27.964C68.8184 27.976 68.8304 27.982 68.8424 27.982C69.6584 27.97 70.2584 27.976 70.6424 28C71.0264 28.024 71.2664 28.024 71.3624 28C71.3744 28 71.3804 28 71.3804 28C71.3924 27.988 71.4044 27.982 71.4164 27.982C71.5244 27.778 71.6084 27.544 71.6684 27.28C71.7284 27.016 71.7824 26.746 71.8304 26.47C71.8904 26.182 71.9444 25.912 71.9924 25.66C72.0524 25.396 72.1244 25.168 72.2084 24.976C72.3404 24.976 72.4424 24.976 72.5144 24.976C72.5984 24.964 72.6704 24.958 72.7304 24.958C72.8024 24.958 72.8804 24.958 72.9644 24.958C73.0484 24.958 73.1684 24.97 73.3244 24.994C73.4084 25.174 73.4864 25.39 73.5584 25.642C73.6304 25.894 73.6964 26.158 73.7564 26.434C73.8284 26.71 73.8944 26.98 73.9544 27.244C74.0264 27.508 74.0984 27.736 74.1704 27.928H74.1884C74.5724 28.012 74.9804 28.06 75.4124 28.072C75.8444 28.096 76.2404 28.072 76.6004 28V27.982L75.2504 21.682ZM73.4144 22.852C73.1864 22.852 72.9584 22.858 72.7304 22.87C72.5024 22.87 72.2864 22.864 72.0824 22.852C72.1664 22.24 72.2384 21.67 72.2984 21.142C72.3704 20.614 72.4304 20.176 72.4784 19.828C72.5384 19.48 72.5984 19.252 72.6584 19.144C72.7304 19.024 72.7964 19.066 72.8564 19.27C72.9284 19.474 73.0064 19.864 73.0904 20.44C73.1864 21.016 73.2944 21.82 73.4144 22.852ZM85.8271 27.946C85.6471 27.454 85.4251 26.98 85.1611 26.524C84.8971 26.056 84.6211 25.6 84.3331 25.156C84.0451 24.712 83.7511 24.274 83.4511 23.842C83.1511 23.398 82.8751 22.954 82.6231 22.51V22.492H82.6411H82.7131C83.2891 22.456 83.7631 22.294 84.1351 22.006C84.5191 21.718 84.8251 21.358 85.0531 20.926C85.4251 20.302 85.5991 19.66 85.5751 19C85.5631 18.328 85.4011 17.716 85.0891 17.164C84.7771 16.612 84.3391 16.15 83.7751 15.778C83.2111 15.406 82.5751 15.202 81.8671 15.166C80.9911 15.07 80.1511 15.064 79.3471 15.148C78.5431 15.232 77.8051 15.322 77.1331 15.418C77.1571 15.574 77.1751 15.874 77.1871 16.318C77.2111 16.75 77.2291 17.278 77.2411 17.902C77.2531 18.514 77.2651 19.192 77.2771 19.936C77.3011 20.668 77.3131 21.412 77.3131 22.168C77.3251 22.912 77.3311 23.638 77.3311 24.346C77.3311 25.042 77.3311 25.66 77.3311 26.2C77.3311 26.74 77.3251 27.178 77.3131 27.514C77.3011 27.838 77.2831 28 77.2591 28C77.3191 27.988 77.4751 27.988 77.7271 28C77.9911 28.012 78.2851 28.012 78.6091 28C78.9331 28 79.2571 27.988 79.5811 27.964C79.9171 27.94 80.1871 27.886 80.3911 27.802C80.3791 27.574 80.3611 27.268 80.3371 26.884C80.3131 26.5 80.2891 26.098 80.2651 25.678C80.2531 25.246 80.2471 24.832 80.2471 24.436C80.2471 24.028 80.2651 23.686 80.3011 23.41L80.3371 23.464C80.5891 23.776 80.8411 24.136 81.0931 24.544C81.3451 24.952 81.5791 25.366 81.7951 25.786C82.0111 26.206 82.2091 26.608 82.3891 26.992C82.5691 27.376 82.7191 27.706 82.8391 27.982H82.8571C83.3971 28.018 83.9251 28.024 84.4411 28C84.9571 27.964 85.4251 27.946 85.8451 27.946H85.8271ZM79.7611 17.938C80.1811 17.77 80.5951 17.68 81.0031 17.668C81.4111 17.644 81.7471 17.752 82.0111 17.992C82.1791 18.124 82.2991 18.304 82.3711 18.532C82.4431 18.748 82.4671 18.97 82.4431 19.198C82.4191 19.414 82.3411 19.618 82.2091 19.81C82.0891 19.99 81.9151 20.104 81.6871 20.152C81.3991 20.2 81.0931 20.218 80.7691 20.206C80.4451 20.194 80.1451 20.176 79.8691 20.152H79.8511C79.8271 20.02 79.8091 19.858 79.7971 19.666C79.7971 19.474 79.7971 19.276 79.7971 19.072C79.7971 18.868 79.7911 18.67 79.7791 18.478C79.7791 18.274 79.7731 18.094 79.7611 17.938ZM93.6315 15.49C92.3955 15.358 91.1235 15.298 89.8155 15.31C88.5195 15.31 87.2595 15.316 86.0355 15.328C86.0355 15.34 86.0355 15.346 86.0355 15.346C86.0475 15.346 86.0535 15.352 86.0535 15.364C86.0295 15.652 86.0175 15.952 86.0175 16.264C86.0175 16.576 86.0175 16.87 86.0175 17.146C86.0295 17.41 86.0415 17.638 86.0535 17.83C86.0775 18.022 86.1015 18.142 86.1255 18.19C86.1975 18.214 86.3235 18.226 86.5035 18.226C86.6835 18.226 86.8815 18.232 87.0975 18.244C87.3135 18.244 87.5295 18.256 87.7455 18.28C87.9615 18.292 88.1415 18.334 88.2855 18.406L88.3035 18.424C88.3755 20.104 88.4175 21.538 88.4295 22.726C88.4535 23.914 88.4595 24.892 88.4475 25.66C88.4475 26.416 88.4415 26.986 88.4295 27.37C88.4175 27.754 88.4175 27.97 88.4295 28.018C88.6455 27.982 88.8795 27.964 89.1315 27.964C89.3835 27.964 89.6355 27.964 89.8875 27.964C90.1515 27.964 90.4095 27.964 90.6615 27.964C90.9255 27.952 91.1655 27.928 91.3815 27.892V27.874V27.856C91.3575 26.548 91.3395 25.414 91.3275 24.454C91.3155 23.482 91.3035 22.654 91.2915 21.97C91.2795 21.274 91.2675 20.71 91.2555 20.278C91.2555 19.834 91.2555 19.48 91.2555 19.216C91.2555 18.94 91.2555 18.742 91.2555 18.622C91.2675 18.49 91.2795 18.394 91.2915 18.334C91.2915 18.322 91.2915 18.316 91.2915 18.316C91.3035 18.304 91.3095 18.292 91.3095 18.28H91.3275H91.3635C91.9275 18.256 92.3775 18.238 92.7135 18.226C93.0495 18.214 93.3315 18.232 93.5595 18.28C93.6195 17.848 93.6495 17.374 93.6495 16.858C93.6615 16.342 93.6555 15.886 93.6315 15.49ZM102.17 25.552C101.354 25.576 100.562 25.57 99.7939 25.534C99.0259 25.486 98.2459 25.462 97.4539 25.462L97.4359 25.444C97.4119 25.156 97.3879 24.796 97.3639 24.364C97.3519 23.932 97.3759 23.542 97.4359 23.194C97.4959 23.146 97.6099 23.116 97.7779 23.104C97.9459 23.092 98.1319 23.086 98.3359 23.086C98.5519 23.086 98.7739 23.086 99.0019 23.086C99.2299 23.074 99.4339 23.044 99.6139 22.996C99.6019 22.552 99.6079 22.126 99.6319 21.718C99.6559 21.31 99.6379 20.902 99.5779 20.494V20.476C99.2059 20.464 98.8339 20.458 98.4619 20.458C98.0899 20.458 97.7239 20.446 97.3639 20.422L97.3459 20.404C97.2619 20.08 97.2379 19.738 97.2739 19.378C97.3219 19.006 97.3399 18.646 97.3279 18.298L97.3459 18.28H97.3999C97.7959 18.244 98.1919 18.226 98.5879 18.226C98.9839 18.226 99.3799 18.232 99.7759 18.244C100.172 18.244 100.562 18.238 100.946 18.226C101.342 18.202 101.732 18.148 102.116 18.064V18.046C102.116 17.626 102.128 17.2 102.152 16.768C102.188 16.336 102.176 15.91 102.116 15.49C102.116 15.478 101.996 15.466 101.756 15.454C101.516 15.442 101.198 15.436 100.802 15.436C100.406 15.436 99.9499 15.442 99.4339 15.454C98.9179 15.466 98.3839 15.478 97.8319 15.49C97.2799 15.502 96.7279 15.52 96.1759 15.544C95.6359 15.556 95.1319 15.574 94.6639 15.598C94.6039 16.63 94.5679 17.656 94.5559 18.676C94.5439 19.696 94.5439 20.716 94.5559 21.736C94.5679 22.756 94.5859 23.782 94.6099 24.814C94.6339 25.834 94.6459 26.866 94.6459 27.91C95.8099 28.006 97.0219 28.036 98.2819 28C99.5539 27.952 100.802 27.934 102.026 27.946C102.122 27.586 102.176 27.202 102.188 26.794C102.2 26.374 102.194 25.972 102.17 25.588V25.552ZM109.579 18.244C109.675 18.148 109.807 18.082 109.975 18.046C110.155 18.01 110.323 17.98 110.479 17.956C110.827 17.944 111.079 18.016 111.235 18.172C111.403 18.328 111.517 18.532 111.577 18.784C111.637 19.024 111.667 19.288 111.667 19.576C111.679 19.864 111.703 20.122 111.739 20.35C112.195 20.434 112.633 20.494 113.053 20.53C113.485 20.554 113.923 20.518 114.367 20.422C114.559 19.87 114.631 19.33 114.583 18.802C114.535 18.274 114.397 17.788 114.169 17.344C113.941 16.888 113.635 16.486 113.251 16.138C112.867 15.79 112.435 15.514 111.955 15.31C111.487 15.094 110.983 14.968 110.443 14.932C109.903 14.896 109.357 14.968 108.805 15.148C108.637 15.196 108.475 15.256 108.319 15.328C108.163 15.388 108.019 15.466 107.887 15.562C107.659 15.766 107.461 16 107.293 16.264C107.137 16.528 107.005 16.816 106.897 17.128C106.825 17.308 106.765 17.506 106.717 17.722C106.681 17.926 106.675 18.13 106.699 18.334C106.687 19.306 106.675 20.164 106.663 20.908C106.663 21.64 106.663 22.3 106.663 22.888C106.675 23.464 106.687 23.986 106.699 24.454C106.711 24.922 106.729 25.372 106.753 25.804C106.801 26.308 106.957 26.728 107.221 27.064C107.497 27.4 107.833 27.664 108.229 27.856C108.625 28.036 109.051 28.15 109.507 28.198C109.963 28.258 110.407 28.258 110.839 28.198C111.499 28.186 112.087 28.024 112.603 27.712C113.131 27.388 113.557 26.98 113.881 26.488C114.205 25.996 114.415 25.444 114.511 24.832C114.607 24.208 114.553 23.584 114.349 22.96C114.181 22.912 113.989 22.882 113.773 22.87C113.569 22.858 113.359 22.852 113.143 22.852C112.927 22.852 112.711 22.858 112.495 22.87C112.291 22.882 112.105 22.876 111.937 22.852C111.877 23.152 111.853 23.458 111.865 23.77C111.889 24.07 111.835 24.358 111.703 24.634C111.583 24.874 111.403 25.048 111.163 25.156C110.935 25.252 110.689 25.288 110.425 25.264C110.077 25.168 109.825 24.958 109.669 24.634C109.525 24.298 109.435 23.956 109.399 23.608C109.363 23.188 109.345 22.696 109.345 22.132C109.345 21.556 109.351 21.004 109.363 20.476C109.375 19.948 109.387 19.492 109.399 19.108C109.423 18.724 109.447 18.514 109.471 18.478C109.483 18.454 109.495 18.418 109.507 18.37C109.531 18.31 109.555 18.268 109.579 18.244ZM123.229 25.552C122.413 25.576 121.621 25.57 120.853 25.534C120.085 25.486 119.305 25.462 118.513 25.462L118.495 25.444C118.471 25.156 118.447 24.796 118.423 24.364C118.411 23.932 118.435 23.542 118.495 23.194C118.555 23.146 118.669 23.116 118.837 23.104C119.005 23.092 119.191 23.086 119.395 23.086C119.611 23.086 119.833 23.086 120.061 23.086C120.289 23.074 120.493 23.044 120.673 22.996C120.661 22.552 120.667 22.126 120.691 21.718C120.715 21.31 120.697 20.902 120.637 20.494V20.476C120.265 20.464 119.893 20.458 119.521 20.458C119.149 20.458 118.783 20.446 118.423 20.422L118.405 20.404C118.321 20.08 118.297 19.738 118.333 19.378C118.381 19.006 118.399 18.646 118.387 18.298L118.405 18.28H118.459C118.855 18.244 119.251 18.226 119.647 18.226C120.043 18.226 120.439 18.232 120.835 18.244C121.231 18.244 121.621 18.238 122.005 18.226C122.401 18.202 122.791 18.148 123.175 18.064V18.046C123.175 17.626 123.187 17.2 123.211 16.768C123.247 16.336 123.235 15.91 123.175 15.49C123.175 15.478 123.055 15.466 122.815 15.454C122.575 15.442 122.257 15.436 121.861 15.436C121.465 15.436 121.009 15.442 120.493 15.454C119.977 15.466 119.443 15.478 118.891 15.49C118.339 15.502 117.787 15.52 117.235 15.544C116.695 15.556 116.191 15.574 115.723 15.598C115.663 16.63 115.627 17.656 115.615 18.676C115.603 19.696 115.603 20.716 115.615 21.736C115.627 22.756 115.645 23.782 115.669 24.814C115.693 25.834 115.705 26.866 115.705 27.91C116.869 28.006 118.081 28.036 119.341 28C120.613 27.952 121.861 27.934 123.085 27.946C123.181 27.586 123.235 27.202 123.247 26.794C123.259 26.374 123.253 25.972 123.229 25.588V25.552ZM132.849 27.946C132.669 27.454 132.447 26.98 132.183 26.524C131.919 26.056 131.643 25.6 131.355 25.156C131.067 24.712 130.773 24.274 130.473 23.842C130.173 23.398 129.897 22.954 129.645 22.51V22.492H129.663H129.735C130.311 22.456 130.785 22.294 131.157 22.006C131.541 21.718 131.847 21.358 132.075 20.926C132.447 20.302 132.621 19.66 132.597 19C132.585 18.328 132.423 17.716 132.111 17.164C131.799 16.612 131.361 16.15 130.797 15.778C130.233 15.406 129.597 15.202 128.889 15.166C128.013 15.07 127.173 15.064 126.369 15.148C125.565 15.232 124.827 15.322 124.155 15.418C124.179 15.574 124.197 15.874 124.209 16.318C124.233 16.75 124.251 17.278 124.263 17.902C124.275 18.514 124.287 19.192 124.299 19.936C124.323 20.668 124.335 21.412 124.335 22.168C124.347 22.912 124.353 23.638 124.353 24.346C124.353 25.042 124.353 25.66 124.353 26.2C124.353 26.74 124.347 27.178 124.335 27.514C124.323 27.838 124.305 28 124.281 28C124.341 27.988 124.497 27.988 124.749 28C125.013 28.012 125.307 28.012 125.631 28C125.955 28 126.279 27.988 126.603 27.964C126.939 27.94 127.209 27.886 127.413 27.802C127.401 27.574 127.383 27.268 127.359 26.884C127.335 26.5 127.311 26.098 127.287 25.678C127.275 25.246 127.269 24.832 127.269 24.436C127.269 24.028 127.287 23.686 127.323 23.41L127.359 23.464C127.611 23.776 127.863 24.136 128.115 24.544C128.367 24.952 128.601 25.366 128.817 25.786C129.033 26.206 129.231 26.608 129.411 26.992C129.591 27.376 129.741 27.706 129.861 27.982H129.879C130.419 28.018 130.947 28.024 131.463 28C131.979 27.964 132.447 27.946 132.867 27.946H132.849ZM126.783 17.938C127.203 17.77 127.617 17.68 128.025 17.668C128.433 17.644 128.769 17.752 129.033 17.992C129.201 18.124 129.321 18.304 129.393 18.532C129.465 18.748 129.489 18.97 129.465 19.198C129.441 19.414 129.363 19.618 129.231 19.81C129.111 19.99 128.937 20.104 128.709 20.152C128.421 20.2 128.115 20.218 127.791 20.206C127.467 20.194 127.167 20.176 126.891 20.152H126.873C126.849 20.02 126.831 19.858 126.819 19.666C126.819 19.474 126.819 19.276 126.819 19.072C126.819 18.868 126.813 18.67 126.801 18.478C126.801 18.274 126.795 18.094 126.783 17.938ZM140.653 15.49C139.417 15.358 138.145 15.298 136.837 15.31C135.541 15.31 134.281 15.316 133.057 15.328C133.057 15.34 133.057 15.346 133.057 15.346C133.069 15.346 133.075 15.352 133.075 15.364C133.051 15.652 133.039 15.952 133.039 16.264C133.039 16.576 133.039 16.87 133.039 17.146C133.051 17.41 133.063 17.638 133.075 17.83C133.099 18.022 133.123 18.142 133.147 18.19C133.219 18.214 133.345 18.226 133.525 18.226C133.705 18.226 133.903 18.232 134.119 18.244C134.335 18.244 134.551 18.256 134.767 18.28C134.983 18.292 135.163 18.334 135.307 18.406L135.325 18.424C135.397 20.104 135.439 21.538 135.451 22.726C135.475 23.914 135.481 24.892 135.469 25.66C135.469 26.416 135.463 26.986 135.451 27.37C135.439 27.754 135.439 27.97 135.451 28.018C135.667 27.982 135.901 27.964 136.153 27.964C136.405 27.964 136.657 27.964 136.909 27.964C137.173 27.964 137.431 27.964 137.683 27.964C137.947 27.952 138.187 27.928 138.403 27.892V27.874V27.856C138.379 26.548 138.361 25.414 138.349 24.454C138.337 23.482 138.325 22.654 138.313 21.97C138.301 21.274 138.289 20.71 138.277 20.278C138.277 19.834 138.277 19.48 138.277 19.216C138.277 18.94 138.277 18.742 138.277 18.622C138.289 18.49 138.301 18.394 138.313 18.334C138.313 18.322 138.313 18.316 138.313 18.316C138.325 18.304 138.331 18.292 138.331 18.28H138.349H138.385C138.949 18.256 139.399 18.238 139.735 18.226C140.071 18.214 140.353 18.232 140.581 18.28C140.641 17.848 140.671 17.374 140.671 16.858C140.683 16.342 140.677 15.886 140.653 15.49ZM148.723 17.344C148.579 16.924 148.333 16.558 147.985 16.246C147.637 15.982 147.241 15.784 146.797 15.652C146.365 15.508 145.915 15.424 145.447 15.4C144.991 15.376 144.529 15.412 144.061 15.508C143.605 15.592 143.179 15.73 142.783 15.922C142.627 16.018 142.489 16.126 142.369 16.246C141.997 16.666 141.745 17.152 141.613 17.704C141.493 18.244 141.427 18.784 141.415 19.324C141.355 20.272 141.343 21.22 141.379 22.168C141.427 23.104 141.469 24.04 141.505 24.976C141.517 25.324 141.547 25.672 141.595 26.02C141.655 26.356 141.769 26.674 141.937 26.974C142.045 27.214 142.183 27.412 142.351 27.568C142.519 27.712 142.705 27.832 142.909 27.928C143.125 28.024 143.347 28.09 143.575 28.126C143.815 28.174 144.061 28.21 144.313 28.234C144.661 28.258 145.003 28.258 145.339 28.234C145.687 28.21 146.029 28.15 146.365 28.054C146.737 27.958 147.085 27.826 147.409 27.658C147.745 27.478 148.015 27.244 148.219 26.956C148.435 26.608 148.597 26.224 148.705 25.804C148.813 25.372 148.879 24.946 148.903 24.526L148.957 23.932C149.005 23.308 149.023 22.696 149.011 22.096C148.999 21.496 149.011 20.878 149.047 20.242C149.059 19.942 149.059 19.648 149.047 19.36C149.047 19.06 149.035 18.76 149.011 18.46C148.987 18.268 148.951 18.082 148.903 17.902C148.867 17.71 148.807 17.524 148.723 17.344ZM146.797 22.6C146.797 22.624 146.791 22.726 146.779 22.906C146.779 23.086 146.773 23.296 146.761 23.536C146.737 23.788 146.725 23.992 146.725 24.148C146.737 24.292 146.737 24.418 146.725 24.526C146.713 24.634 146.683 24.736 146.635 24.832C146.587 24.916 146.509 25.03 146.401 25.174C146.221 25.378 145.999 25.528 145.735 25.624C145.471 25.708 145.207 25.744 144.943 25.732C144.679 25.708 144.433 25.63 144.205 25.498C143.977 25.366 143.803 25.18 143.683 24.94C143.563 24.544 143.491 24.13 143.467 23.698C143.443 23.254 143.401 22.822 143.341 22.402C143.317 21.898 143.311 21.394 143.323 20.89C143.347 20.386 143.407 19.906 143.503 19.45C143.647 18.946 143.929 18.532 144.349 18.208C144.541 18.064 144.763 17.962 145.015 17.902C145.267 17.842 145.513 17.86 145.753 17.956C146.029 18.088 146.245 18.292 146.401 18.568C146.569 18.844 146.665 19.15 146.689 19.486C146.701 19.69 146.713 19.912 146.725 20.152C146.749 20.38 146.761 20.5 146.761 20.512L146.797 21.736V22.6Z" fill="#690589"/>
</g>
<defs>
<clipPath id="clip0">
<rect width="150" height="44" fill="white"/>
</clipPath>
</defs>
</svg>
